<svg role="img" viewBox="0 0 24 24" xmlns="http://www.w3.org/2000/svg"><title>eBay</title><path fill="#E53238" d="M3.116 9.322c-2.134 0-3.116 1.156-3.116 2.91 0 1.59.95 2.777 3.105 2.777 1.18 0 2.55-.435 2.79-1.725h-1.24c-.213.63-.85.93-1.568.93-1.035 0-1.788-.645-1.853-1.74h4.83v-.346c-.01-1.92-1.252-2.806-2.94-2.806h-.008zm-1.86 2.358c.122-1.073.872-1.547 1.816-1.547.87 0 1.68.42 1.725 1.546H1.255z"/><path fill="#0064D2" d="M9.458 9.322c-.8 0-1.612.203-2.202.906V7.212h-1.2v6.667c0 .39-.02.855-.04 1.245h1.18c.025-.24.04-.494.04-.734.506.615 1.33.93 2.2.93 1.78 0 2.992-1.343 2.992-2.99 0-1.95-1.488-2.855-2.828-2.855zm-.265.81c1.125 0 1.893.806 1.893 2.02s-.766 2.02-1.876 2.02h-.03c-1.11 0-1.875-.806-1.875-2.02s.78-2.02 1.89-2.02z"/><path fill="#F5AF02" d="M16.681 9.322c-1.186 0-2.55.33-2.686 1.62h1.275c.06-.51.585-.81 1.305-.81.974 0 1.53.36 1.53 1.245v.135c-.464 0-1.05 0-1.56.018-1.622.04-2.656.39-2.896 1.344-.022.12-.037.255-.037.405 0 .915.79 1.695 2.272 1.695 1 0 1.717-.226 2.32-.96 0 .256.012.51.046.765h1.155c-.03-.315-.04-.66-.04-1.005v-2.46c0-.375-.07-.675-.2-.93l-.03-.06c-.42-.75-1.35-1.02-2.415-1.02zm.418 2.993c.494-.016 1.034-.022 1.484-.022v.13c0 1.124-.675 1.814-1.935 1.814-.945 0-1.305-.505-1.305-.97 0-.717.675-.916 1.77-.95h-.014z"/><path fill="#86B817" d="M22.59 9.498l-2.055 4.126-2.055-4.125h-1.41l3.06 5.756-1.07 2.04h1.346L24 9.498h-1.41z"/></svg>
